# xmcd CD database file
#
# Track frame offsets:
#	150
#	43990
#	70205
#	106627
#	143433
#	174133
#	198581
#	225566
#	261312
#	293673
#	329352
#
# Disc length: 4709 seconds
#
# Revision: 5
# Processed by: cddbd v1.5.2PL0 Copyright (c) Steve Scherf et al.
# Submitted via: CDex 1.70beta2
#
DISCID=9712630b
DTITLE=Grangé, Jean-Christophe - Das Herz der Hölle
DYEAR=2007
DGENRE=Hörbuch
TTITLE0=51 Das Herz der Hölle
TTITLE1=52 Das Herz der Hölle
TTITLE2=53 Das Herz der Hölle
TTITLE3=54 Das Herz der Hölle
TTITLE4=55 Das Herz der Hölle
TTITLE5=56 Das Herz der Hölle
TTITLE6=57 Das Herz der Hölle
TTITLE7=58 Das Herz der Hölle
TTITLE8=59 Das Herz der Hölle
TTITLE9=60 Das Herz der Hölle
TTITLE10=61 Das Herz der Hölle
EXTD=YEAR: 2007
EXTT0=
EXTT1=
EXTT2=
EXTT3=
EXTT4=
EXTT5=
EXTT6=
EXTT7=
EXTT8=
EXTT9=
EXTT10=
PLAYORDER=
